<svg xmlns="http://www.w3.org/2000/svg" viewBox="0 0 96 120" x="0px" y="0px"><title>Artboard 1</title><g><path d="M86.1769,46.58A15.9805,15.9805,0,0,1,72.9384,35.8378a2.0191,2.0191,0,0,0-2.2305-1.3359A15.6191,15.6191,0,0,1,52.2036,20.359a1.9944,1.9944,0,0,0-.74-1.3614,1.9047,1.9047,0,0,0-1.4923-.4238l-.5644.0742a10.24,10.24,0,0,1-1.3731.1289,15.8691,15.8691,0,0,1-13.6507-7.7736,1.9942,1.9942,0,0,0-2.5215-.7929A39.985,39.985,0,1,0,87.9426,48.66,2.002,2.002,0,0,0,86.1769,46.58ZM48.0336,82.7782A35.9886,35.9886,0,0,1,31.9649,14.5815a19.5805,19.5805,0,0,0,16.5589,8.1818,19.8693,19.8693,0,0,0,19.51,16.014,16.0451,16.0451,0,0,0,1.7129-.0976A20.0323,20.0323,0,0,0,83.8214,50.2385,35.9126,35.9126,0,0,1,48.0336,82.7782Z"/><path d="M30.0332,30.7772a6,6,0,1,0,6,6A6.0067,6.0067,0,0,0,30.0332,30.7772Zm0,8a2,2,0,1,1,2-2A2.0014,2.0014,0,0,1,30.0332,38.7773Z"/><path d="M66.034,50.7776a6,6,0,1,0,6,6A6.0067,6.0067,0,0,0,66.034,50.7776Zm0,8a2,2,0,1,1,2-2A2.0014,2.0014,0,0,1,66.034,58.7777Z"/><path d="M46.0336,62.7778a6,6,0,1,0,6,6A6.0067,6.0067,0,0,0,46.0336,62.7778Zm0,8a2,2,0,1,1,2-2A2.0014,2.0014,0,0,1,46.0336,70.778Z"/><path d="M46.0336,42.7774a6,6,0,1,0,6,6A6.0067,6.0067,0,0,0,46.0336,42.7774Zm0,8a2,2,0,1,1,2-2A2.0014,2.0014,0,0,1,46.0336,50.7776Z"/><path d="M26.0332,50.7776a6,6,0,1,0,6,6A6.0067,6.0067,0,0,0,26.0332,50.7776Zm0,8a2,2,0,1,1,2-2A2.0014,2.0014,0,0,1,26.0332,58.7777Z"/></g><text x="0" y="111" fill="#000000" font-size="5px" font-weight="bold" font-family="'Helvetica Neue', Helvetica, Arial-Unicode, Arial, Sans-serif">Created by Deemak Daksina</text><text x="0" y="116" fill="#000000" font-size="5px" font-weight="bold" font-family="'Helvetica Neue', Helvetica, Arial-Unicode, Arial, Sans-serif">from the Noun Project</text></svg>