<svg height="511pt" viewBox="0 -64 511.99924 511" width="511pt" xmlns="http://www.w3.org/2000/svg"><path d="m476.390625 63.003906c-26.699219-32.976562-52.082031-51.726562-79.882813-59.007812-36.230468-9.488282-74.28125 2.011718-106.726562 14.511718-76.011719 29.292969-146.679688 70.105469-210.042969 121.300782-9.46875 7.65625-18.425781 15.414062-23.878906 26.15625-3.503906 6.898437-6.734375 19.796875-1.269531 27.058594.324218.433593.738281.914062 1.246094 1.394531-5.179688 2.644531-10.261719 5.78125-14.695313 9.839843-9.582031 8.769532-14.226563 20.851563-12.121094 31.527344.894531 4.546875 2.914063 8.558594 5.839844 11.601563 6.523437 6.78125 15.878906 7.601562 24.128906 8.328125 1.085938.097656 2.164063.191406 3.222657.300781 6.644531.675781 14.761718 3.445313 15.773437 9.011719.570313 3.144531-1.363281 6.542968-3.367187 8.675781-2.503907 2.675781-5.859376 4.707031-9.414063 6.859375l-1.085937.660156c-18.863282 11.496094-36.046876 25.539063-51.0625 41.738282-4.027344 4.347656-8.539063 9.523437-11.101563 15.984374-3.027344 7.640626-2.511719 15.722657 1.375 21.621094 4.242187 6.4375 12.507813 10.164063 21.574219 9.6875 7.460937-.378906 14.320312-3.253906 20.371094-5.792968l79.460937-33.3125c5.617187-2.355469 11.429687-4.792969 17.207031-5.015626 4.191406-.148437 10.007813 1.195313 12.582032 5.558594 2.398437 4.066406 1.464843 9.417969.378906 15.617188-1.078125 6.167968-2.300782 13.15625.121094 19.820312 2.851562 7.839844 10.484374 13.816406 19.921874 15.597656 2.296876.4375 4.597657.617188 6.863282.617188 5.996094 0 11.730468-1.273438 16.398437-2.523438 23-6.144531 44.207031-18.011718 61.507813-34.34375.636718.335938 1.304687.648438 2.027344.902344 1.644531.578125 3.277343.820313 4.867187.820313 5.945313 0 11.296875-3.402344 14.480469-5.429688l149.917968-95.363281c17.410157-11.074219 35.40625-22.523438 50.441407-37.621094 12.015625-12.0625 26.972656-31.679687 29.992187-56.621094 3.320313-27.4375-8.144531-56.929687-35.050781-90.160156zm-280.765625 308.15625c-5.738281 1.535156-12.464844 2.941406-18.820312 1.742188-5.898438-1.113282-10.757813-4.71875-12.382813-9.1875-1.507813-4.15625-.613281-9.269532.332031-14.683594 1.246094-7.117188 2.65625-15.179688-1.617187-22.421875-4.019531-6.8125-12.269531-10.828125-21.578125-10.46875-7.585938.289063-14.546875 3.207031-20.6875 5.78125l-79.460938 33.316406c-5.554687 2.332031-11.296875 4.738281-17.015625 5.027344-5.453125.28125-10.445312-1.765625-12.714843-5.203125-2.0625-3.128906-2.226563-7.894531-.429688-12.433594 1.925781-4.859375 5.726562-9.191406 9.136719-12.871094 14.394531-15.523437 30.855469-28.984374 48.933593-40l1.066407-.644531c3.972656-2.410156 8.082031-4.898437 11.527343-8.574219 4.746094-5.0625 6.957032-11.527343 5.910157-17.300781-1.699219-9.355469-10.894531-15.777343-24.597657-17.175781-1.105468-.113281-2.226562-.210938-3.359374-.3125-7.136719-.625-13.875-1.21875-17.800782-5.300781-1.570312-1.632813-2.71875-3.976563-3.234375-6.601563-1.714843-8.695312 3.554688-17.179687 9.058594-22.21875 6.875-6.289062 15.957031-10.125 24.738281-13.839844 1.050782-.441406 1.855469-1.214843 2.378906-2.136718 2.972657-.964844 5.859376-2.109375 8.6875-3.238282 4.921876-1.964843 9.566407-3.820312 14.402344-4.65625 9.984375-1.722656 20.414063-1.996093 31.007813-.816406 20.628906 2.308594 40.21875 9.851563 56.652343 21.816406 33.914063 24.6875 57.152344 67.488282 63.757813 117.421876.425781 3.230468 1.113281 8.425781 3.386719 12.976562-16.105469 15.222656-35.855469 26.28125-57.277344 32.003906zm63.804688-46.285156c-6.960938-52.636719-31.667969-97.902344-67.785157-124.199219-17.835937-12.984375-39.078125-21.167969-61.429687-23.664062-4.671875-.523438-9.320313-.785157-13.925782-.785157-6.75 0-13.40625.5625-19.894531 1.683594-5.867187 1.015625-11.226562 3.152344-16.40625 5.222656-4.59375 1.832032-8.929687 3.5625-13.308593 4.402344-1.472657.285156-3.378907.421875-4.097657-.523437-2.417969-3.179688-2.265625-7.160157-.636719-11.375.121094-.035157.246094-.054688.367188-.105469 11.140625-4.492188 20.140625-7.570312 30.546875-9.027344 38.175781-5.351562 70.265625-1.089844 95.371094 12.664063 18.425781 10.09375 34.839843 26.488281 47.457031 47.40625 10.457031 17.332031 18.726562 38.253906 25.277344 63.972656 3.871094 15.199219 6.914062 31.300781 3.472656 46.511719-.011719-.003906-.027344-.003906-.042969-.007813-4.050781-1.058593-4.519531-8.8125-4.964843-12.175781zm242.085937-172.910156c-2.675781 22.113281-16.242187 39.8125-27.148437 50.765625-14.253907 14.3125-31.777344 25.460937-48.722657 36.238281-18.414062 11.710938-36.832031 23.425781-55.246093 35.140625-18.941407 12.050781-37.882813 24.101563-56.828126 36.148437-7.511718 4.78125-15.027343 9.558594-22.539062 14.339844-2.675781 1.699219-5.339844 3.78125-8.171875 5.199219-1.765625.882813-4.648437 2.574219-7.699219 4.117187 2.210938-15.699218-.925781-31.792968-4.507812-45.839843-6.792969-26.679688-15.429688-48.484375-26.398438-66.664063-13.535156-22.433594-31.246094-40.070312-51.21875-51.011718-27.039062-14.8125-61.210937-19.453126-101.5625-13.800782-6.984375.980469-13.449218 2.648438-20.0625 4.863282 5.515625-6.210938 11.691406-11.511719 14.617188-13.875 62.550781-50.542969 132.3125-90.832032 207.347656-119.746094 30.957031-11.929688 67.117188-22.941406 100.597656-14.171875 25.636719 6.714843 49.359375 24.394531 74.648438 55.628906 25.113281 31.015625 35.871094 58.058594 32.894531 82.667969zm0 0"/><path d="m333.03125 168.46875c-6.617188-10.3125-14.984375-19.390625-24.875-26.984375-5.652344-4.34375-11.753906-7.242187-17.65625-10.046875-4.523438-2.148438-8.796875-4.175781-12.769531-6.777344-18.550781-12.144531-40.765625-24.371094-69.695313-15.667968h-.003906c-8.355469 2.515624-14.613281 6.128906-19.132812 11.050781-6.023438 6.5625-8.371094 15.351562-6.128907 22.945312 1.871094 6.324219 6.871094 11.824219 14.082031 15.496094 4.40625 2.242187 9.019532 3.578125 13.476563 4.871094 1.273437.371093 2.546875.738281 3.808594 1.128906 17.324219 5.347656 33.265625 14.9375 46.105469 27.738281 2.871093 2.863282 5.691406 5.992188 8.421874 9.015625 6.320313 7.007813 12.851563 14.253907 21.132813 19.640625 6.539063 4.253906 14.21875 6.820313 21.628906 7.226563.699219.039062 1.390625.058593 2.078125.058593 7.753906 0 14.554688-2.441406 19.757813-7.113281 7.015625-6.300781 10.59375-16.4375 9.578125-27.121093-.761719-8.042969-3.972656-16.371094-9.808594-25.460938zm-6.449219 45.140625c-8.171875 7.332031-21.945312 4.992187-31.332031-1.113281-7.183594-4.675782-13-11.125-19.160156-17.953125-2.816406-3.121094-5.726563-6.351563-8.785156-9.402344-13.984376-13.941406-31.351563-24.390625-50.21875-30.210937-1.316407-.40625-2.644532-.792969-3.972657-1.175782-4.195312-1.21875-8.160156-2.367187-11.726562-4.183594-4.667969-2.375-7.957031-5.808593-9.023438-9.417968-1.234375-4.179688.296875-9.417969 3.902344-13.347656 3.269531-3.558594 8.058594-6.253907 14.648437-8.238282 22.390626-6.734375 40.070313.539063 61.339844 14.460938 4.542969 2.972656 9.328125 5.246094 13.957032 7.445312 5.675781 2.695313 11.042968 5.246094 15.851562 8.941406 8.972656 6.890626 16.5625 15.117188 22.554688 24.457032 4.953124 7.714844 7.65625 14.585937 8.265624 21.003906.710938 7.429688-1.707031 14.605469-6.300781 18.734375zm0 0"/><path d="m414.65625 93.875c-25.757812-32.183594-57.347656-46.421875-88.953125-40.078125-8.617187 1.730469-15.28125 4.683594-20.371094 9.035156-6.738281 5.761719-10.335937 14.1875-9.390625 21.988281.996094 8.230469 6.8125 15.792969 15.960938 20.742188 4.605468 2.496094 9.457031 4.121094 14.144531 5.699219 2.550781.855469 4.960937 1.664062 7.324219 2.601562 13.761718 5.449219 25.683594 15.351563 33.566406 27.875.785156 1.246094 1.539062 2.523438 2.292969 3.804688 3.117187 5.285156 6.339843 10.746093 11.734375 14.683593 4.5 3.277344 10.019531 4.886719 15.65625 4.886719 6.984375 0 14.148437-2.476562 19.742187-7.300781 8.707031-7.515625 13.324219-20.105469 12.046875-32.859375-1.039062-10.382813-5.792968-21.128906-13.753906-31.078125zm-4.824219 56.363281c-6.570312 5.671875-16.660156 6.507813-22.972656 1.90625-3.722656-2.71875-6.292969-7.070312-9.015625-11.683593-.785156-1.328126-1.59375-2.703126-2.441406-4.050782-9.007813-14.308594-22.625-25.617187-38.347656-31.847656-2.613282-1.03125-5.257813-1.921875-7.820313-2.78125-4.484375-1.507812-8.722656-2.929688-12.570313-5.011719-6.167968-3.339843-10.203124-8.257812-10.796874-13.15625-.546876-4.515625 1.738281-9.566406 5.964843-13.179687 3.757813-3.214844 8.9375-5.449219 15.839844-6.832032 37.449219-7.515624 65.679687 19.65625 79.175781 36.519532 6.753906 8.4375 10.769532 17.367187 11.617188 25.824218.953125 9.566407-2.351563 18.875-8.632813 24.292969zm0 0"/></svg>